<svg width="40" height="41" viewBox="0 0 40 41" fill="none" xmlns="http://www.w3.org/2000/svg">
<g id="ion:person">
<path id="Vector" d="M19.9999 20.0164C18.9851 20.0164 18.0118 19.6213 17.2942 18.918C16.5766 18.2147 16.1734 17.2609 16.1734 16.2664C16.1734 15.2718 16.5766 14.318 17.2942 13.6147C18.0118 12.9114 18.9851 12.5164 19.9999 12.5164C21.0148 12.5164 21.9881 12.9114 22.7057 13.6147C23.4233 14.318 23.8265 15.2718 23.8265 16.2664C23.8265 16.7588 23.7275 17.2464 23.5352 17.7014C23.3429 18.1564 23.061 18.5698 22.7057 18.918C22.3504 19.2662 21.9285 19.5425 21.4643 19.7309C21 19.9194 20.5024 20.0164 19.9999 20.0164ZM19.9999 5.76636C17.1583 5.76636 14.4331 6.8726 12.4238 8.84174C10.4145 10.8109 9.28564 13.4816 9.28564 16.2664C9.28564 24.1414 19.9999 35.7664 19.9999 35.7664C19.9999 35.7664 30.7142 24.1414 30.7142 16.2664C30.7142 13.4816 29.5854 10.8109 27.5761 8.84174C25.5668 6.8726 22.8415 5.76636 19.9999 5.76636Z" fill="white"/>
</g>
</svg>
