<svg width="35" height="35" viewBox="0 0 35 35" fill="none" xmlns="http://www.w3.org/2000/svg">
<path d="M22.5198 4.94805C21.2167 3.54113 19.3966 2.76636 17.3877 2.76636C15.3681 2.76636 13.5419 3.53645 12.2448 4.93466C10.9337 6.34828 10.2948 8.26948 10.4448 10.344C10.7422 14.4369 13.8567 17.7664 17.3877 17.7664C20.9187 17.7664 24.0279 14.4376 24.3299 10.3454C24.4819 8.28957 23.839 6.37238 22.5198 4.94805ZM29.1734 32.7664H5.60198C5.29345 32.7704 4.98791 32.7056 4.70758 32.5766C4.42725 32.4477 4.17919 32.2579 3.98144 32.021C3.54618 31.5007 3.37073 30.7902 3.50064 30.0717C4.06582 26.9364 5.82966 24.3027 8.60198 22.4539C11.0649 20.8126 14.1848 19.9092 17.3877 19.9092C20.5906 19.9092 23.7105 20.8132 26.1734 22.4539C28.9457 24.3021 30.7096 26.9358 31.2747 30.071C31.4047 30.7896 31.2292 31.5001 30.7939 32.0204C30.5963 32.2574 30.3482 32.4473 30.0679 32.5763C29.7876 32.7054 29.482 32.7703 29.1734 32.7664Z" fill="white"/>
</svg>
